<svg id="_x33_0" enable-background="new 0 0 64 64" height="512" viewBox="0 0 64 64" width="512" xmlns="http://www.w3.org/2000/svg"><g><path d="m39 55h4v2h-4z"/><path d="m25 32.515v-1.083c-.091-.034-.178-.076-.27-.108-.225-.081-.433-.194-.63-.323l-3.025 2.42 3.711 1.855c.129-.909.214-1.828.214-2.761z"/><path d="m30 21h-1.525c-.757 2.133-2.29 3.899-4.265 4.949l.549 2.744c.068.343.315.628.645.746 8.132 2.905 13.596 10.659 13.596 19.295v.266h20v-32h-26.184c.112.314.184.648.184 1 0 1.654-1.346 3-3 3zm1 8h-2v-2h2zm16 18h-5v-2h5zm0-4h-7v-2h7zm8-22h2v2h-2zm0 6h2v2h-2zm0 8h2v2h-2zm1 6v4c0 .552-.448 1-1 1h-4c-.552 0-1-.448-1-1v-4c0-.552.448-1 1-1h4c.552 0 1 .448 1 1zm-23-14h2.263c.892-3.445 4.017-6 7.737-6 1.846 0 3.542.634 4.898 1.688l1.102-1.102c.372-.373.888-.586 1.414-.586h2.586v2h-2.586l-1.102 1.102c.659.847 1.148 1.829 1.425 2.898h2.263v2h-2c0 1.846-.634 3.542-1.688 4.898l1.102 1.102h2.586v2h-2.586c-.526 0-1.042-.213-1.414-.586l-1.102-1.102c-1.356 1.054-3.052 1.688-4.898 1.688-4.411 0-8-3.589-8-8h-2z"/><path d="m23.056 41.008c.573-1.18 1.012-2.419 1.334-3.695l-1.298-.649-.989 1.484z"/><path d="m47 29c0 .74-.215 1.424-.567 2.019l1.452 1.452c.699-.981 1.115-2.177 1.115-3.471s-.416-2.49-1.115-3.471l-1.452 1.452c.352.595.567 1.279.567 2.019z"/><path d="m10.677 15h.323v-1.868c0-1.048.558-2.034 1.456-2.572l4.606-2.764 4.538 3.404-1.2 1.6-3.463-2.596-3.452 2.071c-.3.18-.485.508-.485.857v4.868c0 3.86 3.141 7 7 7s7-3.14 7-7v-5.203c-1.407-.295-2.741-.909-3.873-1.814l-2.752-2.202 1.25-1.562 2.752 2.202c1.272 1.018 2.872 1.579 4.502 1.579 1.102 0 2.136-.429 2.914-1.207.767-.768 1.207-1.83 1.207-2.914 0-2.139-1.74-3.879-3.879-3.879h-7.121c-3.009 0-5.992.995-8.4 2.8l-.267.2h-.333c-2.206 0-4 1.794-4 4 0 .548.096 1.048.286 1.522zm4.323 1c0-.552.448-1 1-1s1 .448 1 1-.448 1-1 1-1-.448-1-1zm9-1c.552 0 1 .448 1 1s-.448 1-1 1-1-.448-1-1 .448-1 1-1zm-2 4.764.105-.211 1.789.895-.105.211c-.722 1.444-2.174 2.341-3.789 2.341s-3.067-.897-3.789-2.342l-.105-.21 1.789-.895.105.211c.381.762 1.147 1.236 2 1.236s1.619-.474 2-1.236z"/><path d="m15.899 31c-.196.129-.404.242-.629.323-.092.033-.179.075-.271.109v1.084c0 .933.085 1.852.213 2.76l3.711-1.855z"/><path d="m43 25c.74 0 1.424.215 2.019.567l1.452-1.452c-.981-.699-2.177-1.115-3.471-1.115-2.607 0-4.824 1.673-5.65 4h2.206c.694-1.19 1.97-2 3.444-2z"/><circle cx="43" cy="29" r="2"/><path d="m43 35c1.294 0 2.49-.416 3.471-1.115l-1.452-1.452c-.595.352-1.279.567-2.019.567-2.206 0-4-1.794-4-4h-2c0 3.309 2.691 6 6 6z"/><path d="m21.717 43.313-1.437-4.313h-.56l-1.437 4.313c.52.777 1.082 1.531 1.717 2.235.635-.704 1.197-1.458 1.717-2.235z"/><path d="m27 32.323v.192c0 5.739-2.234 11.134-6.293 15.192l-.707.707-.707-.707c-4.059-4.058-6.293-9.454-6.293-15.192v-.192c-6.065 3.141-10 9.454-10 16.411v12.266h6v-17.586c0-.645-.251-1.251-.707-1.707l1.414-1.415c.834.834 1.293 1.942 1.293 3.122v17.586h18v-17.586c0-1.18.459-2.288 1.293-3.122l1.414 1.415c-.456.456-.707 1.062-.707 1.707v17.586h6v-12.266c0-6.957-3.936-13.27-10-16.411z"/><path d="m39 51h22v2h-22z"/><path d="m16.944 41.008.953-2.86-.989-1.484-1.298.649c.322 1.276.761 2.515 1.334 3.695z"/><path d="m10 19h1.059c-.037-.329-.059-.662-.059-1v-1h-1c-.552 0-1 .449-1 1s.448 1 1 1z"/><path d="m29 13v2h1 31v-2z"/><path d="m39 59h8v2h-8z"/><path d="m30 17h-1v1c0 .338-.022.671-.059 1h1.059c.552 0 1-.449 1-1s-.448-1-1-1z"/><path d="m19.535 37h.93l.825-1.237-1.29-.645-1.29.645z"/><path d="m22.798 29.085-.48-2.399c-.741.198-1.516.314-2.318.314s-1.577-.116-2.318-.314l-.48 2.4c-.022.109-.072.206-.106.31l2.904 2.323 2.904-2.323c-.034-.105-.084-.202-.106-.311z"/></g></svg>